<!DOCTYPE svg PUBLIC "-//W3C//DTD SVG 20010904//EN" "http://www.w3.org/TR/2001/REC-SVG-20010904/DTD/svg10.dtd">
<svg version="1.0" xmlns="http://www.w3.org/2000/svg" width="1128px" height="280px" viewBox="0 0 11280 2800" preserveAspectRatio="xMidYMid meet">
<g id="layer101" fill="#040404" stroke="none">
 <path d="M60 2770 c-16 -31 -6 -85 25 -131 20 -31 48 -50 152 -102 155 -76 285 -157 485 -300 154 -111 375 -281 438 -337 33 -29 33 -31 10 -26 -76 15 -290 28 -385 23 -125 -7 -189 -23 -257 -66 -70 -44 -102 -99 -106 -182 -13 -228 208 -418 580 -501 84 -18 133 -23 263 -22 181 0 250 14 490 99 l127 45 116 -101 c129 -112 477 -453 664 -651 125 -133 203 -187 246 -173 50 15 35 59 -50 150 -74 80 -437 421 -696 654 -100 91 -181 169 -179 174 2 6 55 46 120 90 l116 79 213 -105 c532 -263 1198 -665 1468 -886 348 -284 412 -333 474 -366 82 -43 109 -44 147 -6 48 48 35 95 -48 172 -78 73 -830 536 -1239 764 -211 117 -714 373 -856 436 -43 19 -78 37 -78 40 0 14 98 86 272 198 334 215 601 368 761 436 53 23 97 49 112 67 74 88 -26 196 -155 167 -105 -23 -309 -154 -796 -510 -176 -128 -337 -245 -359 -261 l-40 -28 -95 38 c-146 60 -300 110 -467 152 l-152 39 -163 138 c-397 337 -736 605 -926 731 -99 65 -123 76 -168 80 -46 4 -53 2 -64 -18z m1079 -995 c125 -10 200 -20 210 -28 9 -8 77 -66 151 -129 74 -64 161 -138 192 -164 31 -27 57 -54 57 -60 1 -15 -200 -109 -284 -133 -144 -41 -243 -54 -385 -49 -117 4 -147 9 -225 36 -164 55 -266 130 -313 230 -78 169 76 304 353 311 28 0 137 -6 244 -14z m518 -89 c141 -41 373 -116 373 -121 0 -1 -43 -31 -96 -64 l-95 -62 -155 136 c-85 75 -154 138 -154 140 0 7 0 7 127 -29z"/>
 <path d="M8074 2259 c-35 -10 -82 -53 -95 -87 -15 -39 -10 -85 16 -139 13 -29 23 -53 21 -53 -2 0 -58 31 -126 70 -221 125 -388 183 -527 184 -76 1 -84 -1 -109 -26 -15 -14 -30 -42 -33 -61 l-6 -35 -100 45 c-181 82 -311 103 -362 59 -55 -47 -29 -166 57 -265 37 -42 38 -48 3 -25 -187 123 -397 232 -538 280 -100 34 -202 38 -233 11 -26 -23 -35 -74 -23 -126 5 -23 7 -41 5 -41 -2 0 -59 27 -126 59 -187 90 -274 109 -338 76 -43 -22 -54 -49 -37 -84 l14 -28 -101 47 c-186 89 -370 139 -449 123 -39 -8 -77 -57 -77 -99 0 -64 41 -113 203 -243 43 -35 76 -65 74 -67 -2 -2 -30 1 -63 6 -32 6 -77 10 -99 10 -29 0 -54 10 -93 35 -366 247 -719 393 -820 341 -38 -19 -46 -47 -39 -125 l5 -57 -102 53 c-190 97 -308 123 -373 83 -59 -36 -42 -90 58 -186 113 -107 322 -231 478 -284 83 -28 184 -32 208 -8 16 17 16 20 0 52 -18 38 -46 61 -89 71 -25 6 -28 4 -28 -18 0 -33 -25 -57 -58 -57 -75 1 -249 94 -353 189 -64 57 -89 95 -89 136 0 22 4 25 38 25 57 0 144 -26 230 -67 71 -35 102 -56 245 -166 75 -57 132 -46 86 16 -12 18 -44 57 -70 87 -55 65 -69 90 -69 124 0 55 58 70 156 41 60 -18 320 -147 471 -235 103 -60 112 -67 113 -95 0 -24 14 -44 74 -100 90 -86 173 -137 224 -139 33 -1 37 2 40 26 3 21 -9 38 -55 84 -31 32 -49 55 -39 51 10 -4 48 -10 85 -13 54 -5 69 -3 80 10 31 37 -15 97 -150 198 -134 100 -178 156 -157 202 35 78 179 46 480 -106 75 -37 171 -92 215 -122 123 -84 261 -156 348 -183 126 -38 235 -33 235 12 0 22 -52 77 -87 91 -42 18 -40 19 -48 -13 -10 -41 -24 -53 -59 -53 -47 1 -129 39 -242 112 -113 74 -178 135 -195 185 -14 43 -6 53 41 53 100 0 276 -81 414 -190 87 -69 124 -88 145 -75 21 12 11 35 -42 97 -100 119 -118 158 -91 196 20 29 79 29 165 0 153 -51 624 -318 739 -418 36 -31 164 -133 285 -228 121 -94 234 -182 250 -196 l30 -25 -147 -3 c-139 -3 -460 10 -649 27 -74 6 -87 5 -103 -10 -27 -28 -4 -113 39 -141 24 -16 40 -16 173 -6 81 6 296 19 477 28 l330 17 150 -111 c156 -116 209 -143 233 -118 8 8 11 19 8 25 -4 6 -68 52 -142 102 -74 51 -133 94 -130 96 4 4 526 32 604 33 42 0 38 17 -8 42 -32 16 -64 18 -380 18 l-346 0 -250 196 c-397 313 -564 468 -617 574 -29 57 -26 87 10 101 55 21 142 4 284 -56 80 -33 90 -41 123 -91 98 -147 340 -324 443 -324 93 0 96 87 6 158 -53 41 -156 103 -262 157 -105 53 -115 64 -106 105 9 39 56 70 109 70 48 0 183 -45 306 -103 97 -45 398 -218 503 -289 166 -112 413 -182 460 -130 22 24 21 48 -3 87 -49 79 -234 175 -336 175 -51 0 -60 -10 -40 -48 23 -44 66 -58 128 -42 49 12 51 12 91 -16 22 -16 49 -42 61 -57 18 -24 19 -29 6 -38 -45 -30 -216 29 -335 115 -77 56 -162 144 -186 193 -19 39 -20 50 -10 83 23 77 98 110 219 95 178 -21 597 -218 808 -380 82 -63 154 -87 154 -51 0 6 -47 55 -104 109 -114 106 -164 183 -152 232 8 32 45 49 88 41 52 -10 277 -123 526 -265 229 -131 296 -159 354 -147 95 19 90 104 -14 228 -36 43 -147 138 -208 179 -60 40 145 -16 280 -77 49 -22 72 -41 119 -98 71 -88 180 -180 280 -237 63 -37 84 -44 130 -44 50 0 56 3 70 28 15 25 15 30 -5 65 -27 46 -147 130 -306 212 -114 59 -118 62 -118 94 0 22 8 40 26 57 22 21 35 24 92 23 119 -2 300 -84 653 -294 131 -77 206 -117 212 -111 16 16 -8 38 -118 109 -390 254 -630 367 -815 387 -120 13 -180 -20 -180 -96 l0 -37 -84 33 c-161 65 -343 101 -472 93 -84 -6 -110 -19 -159 -84 l-30 -40 -94 44 c-157 75 -225 86 -298 51 -71 -34 -90 -92 -53 -164 11 -21 18 -40 17 -41 -2 -2 -30 13 -62 33 -103 62 -294 151 -394 182 -164 52 -322 72 -397 50z m1629 -177 c110 -54 234 -195 225 -255 -2 -18 -11 -23 -44 -25 -37 -3 -54 5 -155 71 -63 40 -153 97 -201 126 -48 30 -85 57 -82 62 3 5 26 21 52 34 61 33 120 29 205 -13z m-2187 -203 c102 -60 160 -111 148 -131 -8 -13 -50 -2 -94 25 -62 38 -189 167 -165 167 4 0 53 -27 111 -61z m2891 -15 c113 -66 145 -96 124 -117 -14 -14 -69 11 -139 65 -51 39 -122 118 -106 118 4 0 58 -30 121 -66z"/>
 <path d="M9373 1629 c-36 -10 -48 -35 -34 -70 15 -42 48 -62 105 -67 68 -5 96 9 96 49 0 35 -47 89 -77 89 -10 0 -27 2 -38 4 -11 3 -34 0 -52 -5z"/>
 </g>

</svg>